<svg width="1400" height="420" viewBox="0 0 1400 420" fill="none" xmlns="http://www.w3.org/2000/svg">
  <defs>
    <linearGradient id="pf-main" x1="40" y1="40" x2="320" y2="320" gradientUnits="userSpaceOnUse">
      <stop stop-color="#1FBFA6"/>
      <stop offset="0.55" stop-color="#36A7F5"/>
      <stop offset="1" stop-color="#5D7CFA"/>
    </linearGradient>
    <linearGradient id="pf-page" x1="104" y1="104" x2="256" y2="250" gradientUnits="userSpaceOnUse">
      <stop stop-color="#FFFFFF"/>
      <stop offset="1" stop-color="#EAF7FF"/>
    </linearGradient>
    <linearGradient id="pf-accent" x1="200" y1="86" x2="246" y2="132" gradientUnits="userSpaceOnUse">
      <stop stop-color="#FDBA74"/>
      <stop offset="1" stop-color="#F87171"/>
    </linearGradient>
  </defs>

  <g>
    <rect x="36" y="36" width="288" height="288" rx="74" fill="url(#pf-main)"/>
    <circle cx="282" cy="80" r="22" fill="#FFFFFF" fill-opacity="0.24"/>
    <circle cx="76" cy="286" r="18" fill="#FFFFFF" fill-opacity="0.16"/>

    <path d="M104 112C132 98 169 95 202 104V244C169 235 133 238 104 251V112Z" fill="url(#pf-page)"/>
    <path d="M256 112C228 98 191 95 158 104V244C191 235 227 238 256 251V112Z" fill="url(#pf-page)"/>

    <path d="M158 104V245" stroke="#CBE7FF" stroke-width="6" stroke-linecap="round"/>
    <path d="M104 251C132 237 169 234 202 243" stroke="#BEE3F8" stroke-width="5" stroke-linecap="round"/>
    <path d="M256 251C228 237 191 234 158 243" stroke="#BEE3F8" stroke-width="5" stroke-linecap="round"/>

    <path d="M223 86L230 102L246 109L230 116L223 132L216 116L200 109L216 102L223 86Z" fill="url(#pf-accent)"/>
    <circle cx="191" cy="84" r="4" fill="#FFFFFF" fill-opacity="0.9"/>
    <circle cx="259" cy="117" r="4" fill="#FFFFFF" fill-opacity="0.9"/>
  </g>

  <g>
    <text x="372" y="184" font-family="Baloo 2, Nunito, Segoe UI, sans-serif" font-size="106" font-weight="700" fill="#1E2A3B" letter-spacing="0.2">
      Planeja<tspan fill="#15A99B">fácil</tspan>
    </text>
    <text x="378" y="250" font-family="Nunito, Segoe UI, sans-serif" font-size="36" font-weight="700" fill="#4F6A85">
      Planejamento pedagogico leve para toda educadora
    </text>
    <text x="378" y="294" font-family="Nunito, Segoe UI, sans-serif" font-size="24" font-weight="700" fill="#7C90A7">
      Feito para creche hoje e pronto para toda escola amanha
    </text>
  </g>
</svg>
